# Created by Open3D 
# object name: objaverse_nut_half
# number of vertices: 170
# number of triangles: 298
v -7.26167e-09 0.363083 0.0844905
vn 0 0.674664 0.738125
v 0.07861 0.317698 0.113072
vn 0.168368 0.688951 0.704981
v 0.07861 -0.317698 0.113072
vn 0.168368 -0.688951 0.704981
v -3.63083e-08 -0.363083 0.0844905
vn 0 -0.674664 0.738125
v -0.07861 -0.317698 0.113072
vn -0.168368 -0.688951 0.704981
v -0.07861 0.317698 0.113072
vn -0.168368 0.688951 0.704981
v 0.314439 -0.0907709 0.113072
vn 0.680838 -0.198662 0.704977
v 0.314439 -0.181542 0.0844905
vn 0.584275 -0.337332 0.738126
v 0.314439 0.0907709 0.113072
vn 0.680838 0.198662 0.704977
v 0.314439 -7.26167e-09 0.120016
vn 0.802528 0 0.596614
v -0.235829 0.226927 0.113072
vn -0.512468 0.49029 0.704977
v -0.15722 0.272313 0.120016
vn -0.401259 0.695 0.596629
v -0.15722 -0.272313 0.120016
vn -0.401259 -0.695 0.596629
v -0.235829 -0.226927 0.113072
vn -0.512468 -0.49029 0.704977
v 0.235829 -0.226927 0.113072
vn 0.512468 -0.49029 0.704977
v 0.15722 -0.272313 0.120016
vn 0.401259 -0.695 0.596629
v -0.314439 0.0907709 0.113072
vn -0.680838 0.198662 0.704977
v -0.314439 0.181542 0.0844905
vn -0.584275 0.337332 0.738126
v 0.15722 0.272313 0.120016
vn 0.401259 0.695 0.596629
v 0.235829 0.226927 0.113072
vn 0.512468 0.49029 0.704977
v 0.314439 0.181542 0.0844905
vn 0.584275 0.337332 0.738126
v -0.314439 7.26167e-09 0.120016
vn -0.802528 0 0.596614
v -0.314439 -0.181542 0.0844905
vn -0.584275 -0.337332 0.738126
v -0.314439 -0.0907709 0.113072
vn -0.680838 -0.198662 0.704977
v -0.214633 0.214633 0.138917
vn -0.131173 0.149304 0.980052
v -0.262871 0.151768 0.138917
vn -0.366229 0.211443 0.906183
v -0.0785611 -0.293194 0.138917
vn -0.0637142 -0.18825 0.980052
v -3.63083e-08 -0.303537 0.138917
vn 0 -0.367347 0.930084
v 0.262871 0.151768 0.138917
vn 0.318131 0.183673 0.930084
v 0.214633 0.214633 0.138917
vn 0.131173 0.149304 0.980052
v 0.214633 -0.214633 0.138917
vn 0.131173 -0.149304 0.980052
v 0.262871 -0.151768 0.138917
vn 0.366229 -0.211443 0.906183
v -0 0.303537 0.138917
vn 0 0.323901 0.946091
v -0.293194 0.0785611 0.138917
vn -0.233569 0.0466763 0.971219
v -0.0785611 0.293194 0.138917
vn -0.0763602 0.225613 0.97122
v -0.151768 0.262871 0.138917
vn -0.0938638 0.162577 0.982221
v -0.262871 -0.151768 0.138917
vn -0.366229 -0.211443 0.906183
v -0.214633 -0.214633 0.138917
vn -0.131173 -0.149304 0.980052
v 0.293194 0.0785611 0.138917
vn 0.290523 0.0580581 0.955105
v 0.0785611 -0.293194 0.138917
vn 0.0763601 -0.225613 0.97122
v 0.0785611 0.293194 0.138917
vn 0.0763601 0.225613 0.97122
v -0.293194 -0.0785611 0.138917
vn -0.233568 -0.0466761 0.971219
v 0.293194 -0.0785611 0.138917
vn 0.194887 -0.0389462 0.980052
v 0.182804 -5.57914e-05 7.26167e-09
vn -0.619548 0.00168615 0.784957
v 0.176571 0.0472905 0.00213719
vn -0.575817 -0.191433 0.794851
v 0.158296 0.0914104 0.00427437
vn -0.549748 -0.30246 0.77865
v 0.129225 0.129296 0.00641157
vn -0.402397 -0.453176 0.795429
v 0.0913382 0.158368 0.00854873
vn -0.324308 -0.536045 0.77941
v 0.0472187 0.176643 0.0106859
vn -0.121587 -0.592641 0.796237
v -0.00012758 0.182876 0.0128231
vn -0.0127107 -0.625211 0.780352
v -0.0474737 0.176643 0.0149603
vn 0.190773 -0.572963 0.797069
v -0.0915934 0.158368 0.0170975
vn 0.301145 -0.546792 0.781236
v -0.12948 0.129296 0.0192346
vn 0.451117 -0.400191 0.797709
v -0.158551 0.0914099 0.0213718
vn 0.533602 -0.322531 0.78182
v -0.176826 0.0472904 0.023509
vn 0.881828 -0.174688 0.438023
v -0.217367 -0.028603 0.00106861
vn 0.608872 0.0988382 -0.787087
v -0.183059 -5.57115e-05 0.0256462
vn 0.9144 -0.0298121 0.403712
v -0.176826 -0.047402 0.0277833
vn 0.875645 0.265504 -0.403428
v -0.174001 -0.133299 0.00534294
vn 0.525165 0.333109 -0.783096
v -0.158551 -0.0915217 0.0299205
vn 0.806936 0.431429 0.40339
v -0.12948 -0.129408 0.0320577
vn 0.625787 0.668032 -0.402646
v -0.0840964 -0.202285 0.0096173
vn 0.288629 0.551966 -0.782321
v -0.0915934 -0.158479 0.0341949
vn 0.48333 0.777381 0.402581
v -0.0474737 -0.176754 0.0363321
vn 0.207992 0.891899 -0.401565
v 0.0282558 -0.217076 0.0138917
vn -0.0261712 0.623511 -0.781377
v -0.000127428 -0.182987 0.0384693
vn 0.02995 0.915372 0.401494
v 0.0472187 -0.176754 0.0406064
vn -0.266005 0.876846 -0.400478
v 0.132951 -0.17371 0.018166
vn -0.335073 0.527753 -0.780514
v 0.0913382 -0.158479 0.0427436
vn -0.431925 0.808152 0.400414
v 0.129225 -0.129408 0.0448808
vn -0.669068 0.626579 -0.399683
v 0.201938 -0.0838055 0.0224404
vn -0.791823 0.314223 -0.523718
v 0.158296 -0.0915217 0.047018
vn -0.778403 0.484121 0.399644
v 0.176571 -0.0474019 0.0491552
vn -0.89285 0.208105 -0.399388
v 0.216729 0.0285469 0.0267148
vn -0.991445 -0.130526 8.21757e-05
v 0.182804 -5.56752e-05 0.0512926
vn -0.916288 0.0300663 0.399389
v 0.176571 0.0472906 0.0534294
vn -0.877169 -0.266151 -0.399674
v 0.173363 0.133243 0.0309891
vn -0.793353 -0.608761 0.000215896
v 0.158296 0.0914104 0.0555668
vn -0.808433 -0.432052 0.399709
v 0.129225 0.129296 0.0577036
vn -0.626359 -0.668805 -0.400466
v 0.0834584 0.202229 0.0352635
vn -0.382683 -0.92388 0.000285791
v 0.0913382 0.158368 0.059841
vn -0.483875 -0.7781 0.400531
v 0.0472186 0.176643 0.0619783
vn -0.207978 -0.891911 -0.401547
v -0.028894 0.21702 0.0395379
vn 0.130526 -0.991445 0.000289166
v -0.000127522 0.182876 0.0641152
vn -0.029927 -0.915319 0.401615
v -0.0474737 0.176643 0.0662526
vn 0.265652 -0.875969 -0.402625
v -0.13359 0.173654 0.0438122
vn 0.608762 -0.793353 0.000210164
v -0.0915934 0.158368 0.0683899
vn 0.431561 -0.807218 0.402683
v -0.12948 0.129296 0.0705268
vn 0.731375 -0.663269 -0.158636
v -0.202576 0.0837493 0.0480866
vn 0.92388 -0.382682 7.44223e-05
v -0.158551 0.0914104 0.0726641
vn 0.847224 -0.477572 0.232674
v -0.176826 0.0472903 0.0748015
vn 0.948921 -0.211433 -0.234192
v -0.217367 -0.0286031 0.052361
vn 0.991445 0.130526 -8.01231e-05
v -0.183059 -5.5835e-05 0.0769384
vn 0.986318 -0.00182767 0.164846
v -0.176826 -0.0474019 0.0790757
vn 0.924291 0.285369 -0.253477
v -0.174001 -0.133299 0.0566352
vn 0.793353 0.608762 -0.00021957
v -0.158551 -0.0915217 0.0812131
vn 0.855973 0.497423 0.140997
v -0.129479 -0.129408 0.0833499
vn 0.603075 0.637694 -0.479215
v -0.0840964 -0.202285 0.0609094
vn 0.382682 0.92388 -0.000290003
v -0.0915934 -0.158479 0.0854873
vn 0.523211 0.83441 0.173236
v -0.0474738 -0.176754 0.0876246
vn 0.202643 0.847642 -0.490345
v 0.028256 -0.217076 0.0651841
vn -0.130526 0.991445 -0.000288641
v -0.000127312 -0.182987 0.0897615
vn 0.0415792 0.986403 0.158997
v 0.0472188 -0.176754 0.0918988
vn -0.248693 0.836251 -0.488709
v 0.132951 -0.17371 0.0694584
vn -0.60876 0.793354 -0.000207936
v 0.0913382 -0.158479 0.0940357
vn -0.457369 0.87469 0.160411
v 0.129225 -0.129408 0.0961731
vn -0.634237 0.600465 -0.487016
v 0.201938 -0.0838055 0.0737326
vn -0.92388 0.382683 -7.20717e-05
v 0.158296 -0.0915212 0.0983104
vn -0.833222 0.52877 0.161687
v 0.176571 -0.0474019 0.100447
vn -0.849948 0.202957 -0.486207
v 0.216729 0.0285469 0.0780073
vn -0.987347 -0.141899 -0.0707824
v 0.182804 -5.57914e-05 0.102585
vn -0.985829 0.0412755 0.162599
v 0.176571 0.0472905 0.104722
vn -0.956988 -0.219652 -0.189543
v 0.160642 0.0928124 0.106859
vn -0.895045 -0.401835 -0.193451
v 0.132689 0.132952 0.108996
vn -0.688709 -0.710163 -0.14611
v 0.173363 0.133243 0.0822815
vn -0.768095 -0.619268 0.162904
v 0.0834584 0.202229 0.0865557
vn -0.378326 -0.917839 0.120173
v 0.0944985 0.164352 0.111134
vn -0.514859 -0.857132 -0.0156195
v 0.0487122 0.183317 0.11327
vn -0.256984 -0.958314 -0.124873
v -0.0288941 0.21702 0.0908304
vn 0.145117 -0.983808 0.105185
v -7.26167e-09 0.215547 0.138917
vn 0.0111911 -0.260624 0.965375
v -0.0502633 0.186217 0.117545
vn 0.198503 -0.963735 0.178356
v -0.000386422 0.191365 0.115357
vn -0.0516301 -0.975688 0.212994
v 0.107774 -0.186669 0.138917
vn -0.0741607 0.147535 0.986273
v 0.0271388 -0.206979 0.116437
vn -0.15655 0.806174 0.570592
v 0.0557875 -0.208203 0.138917
vn -0.0363354 0.135605 0.990096
v -3.63083e-08 -0.215547 0.138917
vn 0.0158281 0.267317 0.963479
v -0.13359 0.173654 0.0951046
vn 0.529305 -0.811354 0.248074
v -0.170493 0.130035 0.0973286
vn 0.776879 -0.553749 0.299702
v -0.197711 0.0818966 0.0993788
vn 0.874261 -0.331932 0.354244
v -0.208699 0.0269522 0.101623
vn 0.909379 -0.101393 0.403422
v -0.210442 -0.0276912 0.103653
vn 0.890007 0.133034 0.436108
v -0.194164 -0.0801277 0.105828
vn 0.811145 0.360812 0.460281
v -0.166951 -0.128077 0.107928
vn 0.599946 0.625941 0.498259
v -0.0800013 -0.192873 0.112202
vn 0.272735 0.799392 0.53534
v 0.126977 -0.165624 0.120751
vn -0.521314 0.597845 0.608945
v 0.208203 -0.055788 0.138917
vn -0.137403 0.0368171 0.989831
v 0.192762 -0.0798909 0.125025
vn -0.718801 0.24475 0.650709
v 0.186669 -0.107774 0.138917
vn -0.10876 0.0711978 0.991515
v 0.152415 0.152415 0.138917
vn -0.0392013 -0.0392013 0.998462
v 0.107774 0.186669 0.138917
vn -0.114868 -0.18141 0.976676
v 0.16556 0.127619 0.133574
vn -0.597274 -0.415438 0.686058
v 0.186669 0.107774 0.138917
vn -0.0714202 -0.036827 0.996766
v 0.206868 0.0272489 0.129299
vn -0.713089 -0.137482 0.687462
v 0.208203 0.0557875 0.138917
vn -0.0420788 -0.011275 0.999051
v 0.215547 -7.26167e-09 0.138917
vn -0.128237 0.0067791 0.99172
v 0.152415 -0.152415 0.138917
vn -0.130635 0.130635 0.982786
v -0.055788 -0.208203 0.138917
vn 0.0690342 0.257639 0.963772
v -0.055788 0.208203 0.138917
vn 0.0480341 -0.155637 0.986646
v -0.0978728 0.168959 0.119682
vn 0.408928 -0.904531 -0.120838
v -0.107774 0.186669 0.138917
vn 0.0590817 -0.0950273 0.99372
v -0.140412 0.140152 0.121819
vn 0.674668 -0.737885 -0.0186627
v -0.152415 0.152415 0.138917
vn 0.153494 -0.143419 0.977686
v -0.174281 0.100503 0.123957
vn 0.833987 -0.549776 0.0470343
v 0.0557875 0.208203 0.138917
vn -0.0415156 -0.185058 0.98185
v -0.186669 -0.107774 0.138917
vn 0.025676 0.0148241 0.99956
v -0.208203 -0.0557875 0.138917
vn 0.0703273 0.0212929 0.997297
v 0.151768 0.262871 0.138917
vn 0.0938638 0.162577 0.982221
v 0.303537 -7.26167e-09 0.138917
vn 0.143735 0 0.989616
v -0.186669 0.107774 0.138917
vn 0.0795431 -0.0431197 0.995898
v 0.151768 -0.262871 0.138917
vn 0.0938638 -0.162577 0.982221
v -0.107774 -0.186669 0.138917
vn 0.128053 0.196692 0.972067
v -0.151768 -0.262871 0.138917
vn -0.0938638 -0.162577 0.982221
v -0.303537 2.90467e-08 0.138917
vn -0.11633 0 0.993211
v -0.215548 2.1785e-08 0.138917
vn 0.148191 0.00542612 0.988944
v -0.152415 -0.152415 0.138917
vn 0.234249 0.217657 0.947498
v -0.208203 0.055788 0.138917
vn 0.105713 -0.0248342 0.994087
v -0.197996 0.0530218 0.126094
vn 0.949444 -0.297777 0.0994287
v -0.207741 -1.84446e-06 0.128231
vn 0.991922 -0.0469269 0.117852
v -0.202173 -0.0541721 0.130368
vn 0.963878 0.234732 0.125859
v -0.183084 -0.105428 0.132505
vn 0.871807 0.459495 0.169757
f 25//25 12//12 11//11
f 26//26 11//11 18//18
f 27//27 13//13 5//5
f 28//28 5//5 4//4
f 20//20 29//29 21//21
f 19//19 30//30 20//20
f 31//31 16//16 15//15
f 32//32 15//15 8//8
f 6//6 33//33 1//1
f 22//22 34//34 17//17
f 35//35 12//12 36//36
f 37//37 14//14 38//38
f 39//39 10//10 9//9
f 13//13 38//38 14//14
f 29//29 9//9 21//21
f 28//28 3//3 40//40
f 41//41 19//19 2//2
f 16//16 40//40 3//3
f 33//33 2//2 1//1
f 42//42 22//22 24//24
f 37//37 24//24 23//23
f 32//32 7//7 43//43
f 10//10 43//43 7//7
f 26//26 17//17 34//34
f 57//57 58//58 56//56
f 58//58 59//59 56//56
f 60//60 61//61 59//59
f 61//61 62//62 59//59
f 63//63 64//64 62//62
f 64//64 65//65 62//62
f 66//66 67//67 65//65
f 67//67 68//68 65//65
f 69//69 70//70 68//68
f 70//70 71//71 68//68
f 72//72 73//73 71//71
f 73//73 74//74 71//71
f 75//75 76//76 74//74
f 76//76 77//77 74//74
f 78//78 79//79 77//77
f 79//79 80//80 77//77
f 81//81 82//82 80//80
f 82//82 83//83 80//80
f 84//84 85//85 83//83
f 85//85 86//86 83//83
f 87//87 88//88 86//86
f 88//88 89//89 86//86
f 90//90 91//91 89//89
f 91//91 92//92 89//89
f 93//93 94//94 92//92
f 94//94 95//95 92//92
f 96//96 97//97 95//95
f 97//97 98//98 95//95
f 99//99 100//100 98//98
f 100//100 101//101 98//98
f 102//102 103//103 101//101
f 103//103 104//104 101//101
f 105//105 106//106 104//104
f 106//106 107//107 104//104
f 108//108 109//109 107//107
f 109//109 110//110 107//107
f 111//111 112//112 110//110
f 113//113 110//110 112//112
f 113//113 114//114 115//115
f 114//114 116//116 115//115
f 117//117 118//118 116//116
f 118//118 119//119 116//116
f 120//120 121//121 122//122
f 123//123 124//124 125//125
f 126//126 125//125 124//124
f 74//74 45//45 44//44
f 74//74 46//46 45//45
f 77//77 47//47 46//46
f 77//77 48//48 47//47
f 80//80 49//49 48//48
f 80//80 50//50 49//49
f 83//83 51//51 50//50
f 83//83 52//52 51//51
f 86//86 53//53 52//52
f 86//86 54//54 53//53
f 89//89 55//55 54//54
f 89//89 57//57 55//55
f 92//92 58//58 57//57
f 92//92 60//60 58//58
f 95//95 61//61 60//60
f 95//95 63//63 61//61
f 98//98 64//64 63//63
f 98//98 66//66 64//64
f 101//101 67//67 66//66
f 101//101 69//69 67//67
f 104//104 70//70 69//69
f 104//104 72//72 70//70
f 107//107 73//73 72//72
f 107//107 75//75 73//73
f 110//110 76//76 75//75
f 110//110 78//78 76//76
f 115//115 79//79 78//78
f 115//115 81//81 79//79
f 116//116 82//82 81//81
f 116//116 84//84 82//82
f 119//119 85//85 84//84
f 119//119 87//87 85//85
f 127//127 88//88 87//87
f 127//127 128//128 88//88
f 129//129 91//91 90//90
f 130//130 91//91 129//129
f 93//93 131//131 94//94
f 132//132 94//94 131//131
f 133//133 99//99 97//97
f 134//134 100//100 99//99
f 134//134 102//102 100//100
f 124//124 103//103 102//102
f 124//124 105//105 103//103
f 135//135 106//106 105//105
f 135//135 108//108 106//106
f 136//136 137//137 138//138
f 139//139 140//140 141//141
f 142//142 139//139 141//141
f 142//142 143//143 144//144
f 145//145 144//144 143//143
f 145//145 137//137 136//136
f 140//140 118//118 117//117
f 108//108 137//137 109//109
f 138//138 135//135 146//146
f 123//123 146//146 135//135
f 126//126 134//134 147//147
f 148//148 149//149 121//121
f 150//150 151//151 149//149
f 152//152 153//153 151//151
f 122//122 121//121 119//119
f 154//154 122//122 118//118
f 42//42 155//155 156//156
f 43//43 138//138 32//32
f 41//41 140//140 157//157
f 35//35 150//150 148//148
f 28//28 125//125 126//126
f 158//158 144//144 145//145
f 30//30 140//140 139//139
f 38//38 155//155 37//37
f 25//25 159//159 152//152
f 31//31 123//123 160//160
f 43//43 145//145 136//136
f 34//34 159//159 26//26
f 33//33 154//154 41//41
f 27//27 161//161 162//162
f 40//40 123//123 125//125
f 29//29 144//144 39//39
f 163//163 156//156 164//164
f 38//38 161//161 165//165
f 31//31 138//138 146//146
f 33//33 148//148 120//120
f 163//163 166//166 34//34
f 27//27 126//126 147//147
f 30//30 142//142 29//29
f 25//25 150//150 36//36
f 134//134 161//161 147//147
f 137//137 111//111 109//109
f 143//143 112//112 111//111
f 143//143 113//113 112//112
f 141//141 114//114 113//113
f 161//161 133//133 165//165
f 140//140 114//114 141//141
f 149//149 119//119 121//121
f 149//149 151//151 127//127
f 151//151 128//128 127//127
f 129//129 153//153 167//167
f 96//96 133//133 97//97
f 130//130 167//167 168//168
f 168//168 131//131 130//130
f 169//169 132//132 131//131
f 159//159 167//167 153//153
f 166//166 168//168 167//167
f 164//164 169//169 168//168
f 156//156 170//170 169//169
f 155//155 165//165 170//170
f 133//133 170//170 165//165
f 128//128 151//151 153//153
f 153//153 129//129 128//128
f 90//90 128//128 129//129
f 88//88 128//128 90//90
f 25//25 36//36 12//12
f 26//26 25//25 11//11
f 27//27 162//162 13//13
f 28//28 27//27 5//5
f 20//20 30//30 29//29
f 19//19 157//157 30//30
f 31//31 160//160 16//16
f 32//32 31//31 15//15
f 6//6 35//35 33//33
f 22//22 163//163 34//34
f 35//35 6//6 12//12
f 37//37 23//23 14//14
f 39//39 158//158 10//10
f 13//13 162//162 38//38
f 29//29 39//39 9//9
f 28//28 4//4 3//3
f 41//41 157//157 19//19
f 16//16 160//160 40//40
f 33//33 41//41 2//2
f 42//42 163//163 22//22
f 37//37 42//42 24//24
f 32//32 8//8 7//7
f 10//10 158//158 43//43
f 26//26 18//18 17//17
f 55//55 57//57 56//56
f 58//58 60//60 59//59
f 61//61 63//63 62//62
f 64//64 66//66 65//65
f 67//67 69//69 68//68
f 70//70 72//72 71//71
f 73//73 75//75 74//74
f 76//76 78//78 77//77
f 79//79 81//81 80//80
f 82//82 84//84 83//83
f 85//85 87//87 86//86
f 88//88 90//90 89//89
f 91//91 93//93 92//92
f 94//94 96//96 95//95
f 97//97 99//99 98//98
f 100//100 102//102 101//101
f 103//103 105//105 104//104
f 106//106 108//108 107//107
f 109//109 111//111 110//110
f 113//113 115//115 110//110
f 114//114 117//117 116//116
f 118//118 122//122 119//119
f 120//120 148//148 121//121
f 123//123 135//135 124//124
f 71//71 74//74 44//44
f 74//74 77//77 46//46
f 77//77 80//80 48//48
f 80//80 83//83 50//50
f 83//83 86//86 52//52
f 86//86 89//89 54//54
f 89//89 92//92 57//57
f 92//92 95//95 60//60
f 95//95 98//98 63//63
f 98//98 101//101 66//66
f 101//101 104//104 69//69
f 104//104 107//107 72//72
f 107//107 110//110 75//75
f 110//110 115//115 78//78
f 115//115 116//116 81//81
f 116//116 119//119 84//84
f 119//119 127//127 87//87
f 130//130 93//93 91//91
f 93//93 130//130 131//131
f 132//132 96//96 94//94
f 133//133 134//134 99//99
f 134//134 124//124 102//102
f 124//124 135//135 105//105
f 135//135 137//137 108//108
f 142//142 141//141 143//143
f 145//145 143//143 137//137
f 140//140 154//154 118//118
f 138//138 137//137 135//135
f 126//126 124//124 134//134
f 148//148 150//150 149//149
f 150//150 152//152 151//151
f 152//152 159//159 153//153
f 154//154 120//120 122//122
f 42//42 37//37 155//155
f 43//43 136//136 138//138
f 41//41 154//154 140//140
f 35//35 36//36 150//150
f 28//28 40//40 125//125
f 158//158 39//39 144//144
f 30//30 157//157 140//140
f 38//38 165//165 155//155
f 25//25 26//26 159//159
f 31//31 146//146 123//123
f 43//43 158//158 145//145
f 34//34 166//166 159//159
f 33//33 120//120 154//154
f 27//27 147//147 161//161
f 40//40 160//160 123//123
f 29//29 142//142 144//144
f 163//163 42//42 156//156
f 38//38 162//162 161//161
f 31//31 32//32 138//138
f 33//33 35//35 148//148
f 163//163 164//164 166//166
f 27//27 28//28 126//126
f 30//30 139//139 142//142
f 25//25 152//152 150//150
f 137//137 143//143 111//111
f 143//143 141//141 113//113
f 161//161 134//134 133//133
f 140//140 117//117 114//114
f 149//149 127//127 119//119
f 96//96 132//132 133//133
f 130//130 129//129 167//167
f 168//168 169//169 131//131
f 169//169 170//170 132//132
f 159//159 166//166 167//167
f 166//166 164//164 168//168
f 164//164 156//156 169//169
f 156//156 155//155 170//170
f 133//133 132//132 170//170
